<svg width="297" height="380" viewBox="0 0 297 380" fill="none" xmlns="http://www.w3.org/2000/svg">
<path d="M34.9098 8.2868C58.8365 20.7592 102.108 41.1224 126.29 51.0495C150.471 60.9765 155.562 60.4674 178.725 49.522C201.889 38.5766 243.123 17.1957 266.032 6.25048C288.94 -4.69472 293.522 -5.2038 295.558 47.7415C297.595 100.687 297.086 207.082 295.304 262.317C293.522 317.553 290.467 321.625 267.813 333.08C245.158 344.534 202.906 363.37 180.252 372.533C157.598 381.696 154.543 381.187 128.325 369.224C102.107 357.26 52.7274 333.843 27.2734 319.589C1.81941 305.334 0.292209 300.244 0.0376805 246.28C-0.216833 192.317 0.80129 89.4849 3.60127 40.3588C6.40126 -8.76726 10.9831 -4.18564 34.9098 8.2868Z" fill="#9D9D9F"/>
<path d="M146.144 110.612C142.071 163.301 140.289 268.935 139.907 321.625C139.526 374.315 140.544 374.06 143.089 375.078C145.635 376.097 149.707 378.387 154.034 379.151C158.362 379.915 162.943 379.151 165.234 324.551C167.525 269.951 167.525 161.52 166.761 108.194C165.998 54.8676 164.47 56.6493 160.525 57.4129C156.58 58.1765 150.216 57.922 146.144 110.612Z" fill="black"/>
<path d="M37.0734 34.1226C55.5275 37.5589 92.4357 52.5767 111.908 64.0311C131.38 75.4854 133.417 83.376 128.962 86.1759C124.507 88.9758 113.563 86.685 94.09 79.3032C74.6174 71.9215 46.6186 59.4493 32.6189 49.1403C18.6192 38.8314 18.6192 30.6863 37.0734 34.1226Z" fill="black"/>
<path d="M41.8256 80.4054C56.2467 83.0907 85.089 94.8265 100.306 103.778C115.523 112.729 117.114 118.895 113.633 121.083C110.152 123.271 101.599 121.481 86.3817 115.712C71.1647 109.944 49.2848 100.197 38.3447 92.1411C27.4045 84.0851 27.4045 77.72 41.8256 80.4054Z" fill="black"/>
<path d="M30.3256 122.914C50.6011 126.689 91.1521 143.189 112.546 155.774C133.94 168.359 136.178 177.028 131.283 180.104C126.389 183.181 114.364 180.664 92.9696 172.553C71.5751 164.443 40.813 150.74 25.4316 139.413C10.0502 128.087 10.0502 119.138 30.3256 122.914Z" fill="black"/>
<path d="M275.335 169.551C255.059 173.327 214.508 189.827 193.114 202.412C171.72 214.996 169.483 223.666 174.377 226.742C179.271 229.818 191.296 227.301 212.691 219.191C234.085 211.081 264.847 197.378 280.229 186.051C295.61 174.725 295.61 165.776 275.335 169.551Z" fill="black"/>
<path d="M280.091 207.916C268.206 210.129 244.438 219.8 231.898 227.176C219.358 234.553 218.047 239.634 220.915 241.437C223.784 243.24 230.833 241.765 243.373 237.011C255.913 232.258 273.944 224.226 282.959 217.587C291.975 210.948 291.975 205.703 280.091 207.916Z" fill="black"/>
<path d="M283.273 237.624C271.388 239.837 247.62 249.508 235.08 256.885C222.54 264.261 221.229 269.342 224.097 271.146C226.966 272.949 234.014 271.473 246.555 266.72C259.095 261.966 277.126 253.934 286.141 247.295C295.157 240.656 295.157 235.411 283.273 237.624Z" fill="black"/>
<path d="M267.167 283.41C249.298 286.737 213.561 301.278 194.706 312.369C175.852 323.46 173.88 331.1 178.193 333.812C182.507 336.523 193.104 334.304 211.959 327.157C230.814 320.009 257.925 307.933 271.48 297.951C285.036 287.969 285.036 280.082 267.167 283.41Z" fill="black"/>
<path d="M29.3081 180.351C49.5836 184.127 90.1345 200.627 111.529 213.212C132.923 225.796 135.16 234.466 130.266 237.542C125.372 240.618 113.346 238.101 91.9521 229.991C70.5576 221.881 39.7954 208.178 24.414 196.851C9.03264 185.525 9.03264 176.576 29.3081 180.351Z" fill="black"/>
<path d="M60.2486 248.086C72.6963 250.404 97.5915 260.534 110.726 268.26C123.86 275.986 125.234 281.309 122.229 283.197C119.224 285.086 111.842 283.541 98.7073 278.562C85.5727 273.582 66.6871 265.17 57.244 258.216C47.801 251.263 47.801 245.769 60.2486 248.086Z" fill="black"/>
<path d="M29.241 272.687C49.1041 276.386 88.8304 292.55 109.789 304.879C130.749 317.208 132.94 325.701 128.146 328.715C123.351 331.728 111.57 329.263 90.611 321.317C69.6516 313.372 39.515 299.947 24.4464 288.851C9.37779 277.755 9.3778 268.988 29.241 272.687Z" fill="black"/>
<path d="M174.397 59.9583C175.161 100.43 175.925 140.902 177.834 161.265C179.743 181.628 182.797 181.883 201.379 173.228C219.961 164.574 254.068 147.011 271.759 137.847C289.449 128.684 290.722 127.92 290.849 108.957C290.977 89.9932 289.958 52.8312 288.431 33.2316C286.904 13.6321 284.868 11.5958 265.777 18.9776C246.686 26.3594 210.542 43.1587 174.397 59.9583Z" stroke="black" stroke-width="3.32976" stroke-linecap="round" stroke-linejoin="round"/>
<path d="M210.86 98.5211C222.353 98.5211 231.669 89.2048 231.669 77.7125C231.669 66.2202 222.353 56.9039 210.86 56.9039C199.368 56.9039 190.052 66.2202 190.052 77.7125C190.052 89.2048 199.368 98.5211 210.86 98.5211Z" stroke="black" stroke-width="3.32976" stroke-linecap="round" stroke-linejoin="round"/>
<path d="M262.595 126.775C271.241 126.775 278.25 119.595 278.25 110.739C278.25 101.883 271.241 94.703 262.595 94.703C253.95 94.703 246.941 101.883 246.941 110.739C246.941 119.595 253.95 126.775 262.595 126.775Z" fill="black" stroke="black" stroke-width="3.32976" stroke-linecap="round" stroke-linejoin="round"/>
<path d="M206.088 150.829C214.522 150.829 221.36 143.308 221.36 134.029C221.36 124.751 214.522 117.23 206.088 117.23C197.653 117.23 190.815 124.751 190.815 134.029C190.815 143.308 197.653 150.829 206.088 150.829Z" fill="black" stroke="black" stroke-width="3.32976" stroke-linecap="round" stroke-linejoin="round"/>
</svg>
