<svg width="2278" height="2036" viewBox="0 0 2278 2036" fill="none" xmlns="http://www.w3.org/2000/svg">
<path d="M1884.05 1972.16H855.471C800.562 1972.16 756.049 1927.65 756.049 1872.74V758.025C756.049 732.145 766.141 707.285 784.179 688.728C914.659 554.492 1262.7 195.142 1305.64 145.037C1335.35 110.378 1373.91 77.383 1414.22 52.129C1469.43 17.539 1523.35 0 1574.49 0C1619.17 0 1660.92 13.879 1695.25 40.136C1771.51 98.451 1788.44 168.314 1789.22 216.651C1790.05 268.755 1772.59 323.793 1737.33 380.236C1711.43 421.641 1622.59 563.482 1551.65 676.742H2043.21C2094.32 673.47 2152.84 695.554 2197.36 734.418C2249.19 779.67 2277.74 843.044 2277.74 912.867C2277.74 972.93 2256.99 1028.37 2218.72 1072C2222.74 1078.58 2226.45 1085.36 2229.85 1092.31C2247.48 1128.34 2256.42 1168.4 2256.42 1211.4C2256.42 1258.98 2244.15 1301.76 2219.94 1338.54C2211.66 1351.12 2202.12 1362.77 2191.37 1373.44C2191.99 1374.71 2192.61 1375.99 2193.21 1377.27C2209.68 1412.36 2218.03 1451.98 2218.03 1495.01C2218.03 1570.94 2187.24 1634.71 2130.81 1676.77C2138.24 1699.8 2142.09 1724.52 2142.09 1750.39C2142.09 1793.65 2130.84 1832.73 2108.66 1866.54C2089.81 1895.27 2063.85 1918.82 2031.51 1936.54C1974.92 1967.53 1914.83 1972.16 1884.05 1972.16ZM954.893 1773.32H1884.05C1898.05 1773.32 1913.61 1770.81 1925.68 1766.61C1937.25 1762.58 1941.82 1758.37 1942.41 1757.46C1942.61 1757.05 1943.25 1754.79 1943.25 1750.39C1943.25 1736.6 1939.26 1732.73 1937.34 1730.87C1933.52 1727.17 1928.23 1724.77 1926.18 1724.03C1876.72 1710.72 1845.29 1661.78 1854.13 1611C1863.13 1559.26 1910.83 1523.45 1963.02 1529.23C1963.03 1529.23 1964.27 1529.35 1966.67 1529.35C1979.61 1529.35 1997.84 1526.16 2009.42 1519.06C2014.22 1516.11 2019.19 1513.06 2019.19 1495.01C2019.19 1475.43 2015.03 1461.01 2006.82 1452.16C2001.36 1446.28 1995.02 1443.53 1993.41 1442.9C1946.33 1429.83 1915.52 1384.27 1921.32 1335.4C1927.04 1287.19 1966.63 1250.45 2014.59 1247.84C2019.99 1247.09 2034.6 1243.89 2045.75 1236.63C2052.9 1231.99 2057.58 1227.72 2057.58 1211.4C2057.58 1185.43 2048.37 1173.02 2041.44 1165.95C2032.24 1156.54 2021.78 1152.04 2020.01 1151.32C1976.33 1136.62 1948.37 1093.71 1952.78 1047.63C1957.25 1000.93 1993.73 963.738 2040.29 958.337C2044.54 957.535 2056.55 952.984 2066.01 944.2C2075.04 935.813 2078.9 926.442 2078.9 912.865C2078.9 886.034 2057.57 877.39 2051.54 875.491C2050.11 875.553 2048.67 875.584 2047.24 875.584H1372.05C1335.89 875.584 1302.58 855.95 1285.07 824.313C1267.55 792.676 1268.6 754.025 1287.8 723.38C1290.15 719.619 1523.91 346.474 1568.72 274.834C1588.57 243.058 1590.49 225.777 1590.4 219.824C1590.35 216.754 1590.25 210.437 1575.48 198.868C1575.21 198.853 1574.88 198.842 1574.49 198.842C1564.86 198.842 1545.43 204.567 1519.78 220.634C1496.72 235.08 1473.11 255.193 1456.62 274.436C1407.74 331.464 1063.33 686.688 954.893 798.365V1773.32ZM1996.36 1443.67C1996.5 1443.7 1996.64 1443.74 1996.78 1443.77C1996.64 1443.74 1996.5 1443.7 1996.36 1443.67Z" fill="black"/>
<path d="M362.224 2035.22C362.042 2035.22 361.861 2035.22 361.68 2035.22C283.631 2034.8 206.545 2033.33 205.776 2033.32C192.947 2033.07 180.286 2030.34 168.493 2025.29C162.806 2022.85 132.8 2009.49 100.48 1985.98C31.1951 1935.57 10.3341 1880.81 5.03414 1843.75C2.85914 1828.53 -1.66491 1796.88 0.635088 1283.76C1.75609 1033.51 4.01504 787.843 4.03804 785.39C4.17804 770.263 7.76811 755.367 14.5351 741.836C16.7091 737.49 28.5571 714.596 48.3951 690.628C92.4031 637.46 139.149 622.553 170.614 619.41C182.289 618.245 205.458 616.908 281.681 616.908C305.09 616.908 332.184 617.036 362.224 617.287C392.264 617.036 419.358 616.908 442.767 616.908C518.991 616.908 542.16 618.245 553.829 619.41C585.3 622.554 632.046 637.46 676.054 690.629C695.892 714.597 707.74 737.49 709.914 741.837C716.681 755.367 720.271 770.263 720.411 785.391C720.434 787.843 722.693 1033.51 723.814 1283.76C726.113 1796.88 721.589 1828.53 719.416 1843.74C714.115 1880.81 693.254 1935.58 623.969 1985.98C591.649 2009.49 561.643 2022.85 555.956 2025.29C544.163 2030.35 531.502 2033.07 518.673 2033.32C517.903 2033.33 440.818 2034.8 362.769 2035.22C362.587 2035.22 362.406 2035.22 362.224 2035.22ZM232.425 1834.91C260.646 1835.37 311.207 1836.1 362.224 1836.38C413.241 1836.1 463.802 1835.37 492.023 1834.91C495.083 1833.12 498.428 1831.06 501.873 1828.75C513.419 1821.02 519.907 1814.64 522.834 1811.14C524.375 1784.86 526.79 1680.82 524.933 1275.85C524.034 1079.76 522.457 888.166 521.837 816.632C509.668 816.212 486.392 815.753 442.768 815.753C419.698 815.753 392.882 815.88 363.063 816.132C362.503 816.136 361.945 816.136 361.385 816.132C331.567 815.88 304.751 815.753 281.68 815.753C238.06 815.753 214.782 816.212 202.611 816.632C201.991 888.17 200.414 1079.81 199.515 1275.91C197.658 1680.84 200.073 1784.86 201.614 1811.14C204.541 1814.64 211.029 1821.02 222.575 1828.75C226.02 1831.06 229.365 1833.12 232.425 1834.91Z" fill="black"/>
</svg>
